<?xml version="1.0" encoding="UTF-8" standalone="no"?>
<!DOCTYPE svg PUBLIC "-//W3C//DTD SVG 1.1//EN"
 "http://www.w3.org/Graphics/SVG/1.1/DTD/svg11.dtd">
<!-- Generated by graphviz version 12.2.1 (0)
 -->
<!-- Title: G Pages: 1 -->
<svg width="1175pt" height="577pt"
 viewBox="0.00 0.00 1175.20 576.71" xmlns="http://www.w3.org/2000/svg" xmlns:xlink="http://www.w3.org/1999/xlink">
<g id="graph0" class="graph" transform="scale(1 1) rotate(0) translate(21.6 555.11)">
<title>G</title>
<polygon fill="#111111" stroke="none" points="-21.6,21.6 -21.6,-555.11 1153.6,-555.11 1153.6,21.6 -21.6,21.6"/>
<!-- background/audio&#45;cache.js -->
<g id="node1" class="node">
<title>background/audio&#45;cache.js</title>
<path fill="none" stroke="#c6c5fe" d="M791.96,-383.51C791.96,-383.51 630.54,-383.51 630.54,-383.51 626.58,-383.51 622.62,-379.55 622.62,-375.6 622.62,-375.6 622.62,-367.68 622.62,-367.68 622.62,-363.72 626.58,-359.76 630.54,-359.76 630.54,-359.76 791.96,-359.76 791.96,-359.76 795.92,-359.76 799.88,-363.72 799.88,-367.68 799.88,-367.68 799.88,-375.6 799.88,-375.6 799.88,-379.55 795.92,-383.51 791.96,-383.51"/>
<text text-anchor="middle" x="711.25" y="-366.21" font-family="Arial" font-size="14.00" fill="#c6c5fe">background/audio&#45;cache.js</text>
</g>
<!-- background/audio&#45;segment.js -->
<g id="node2" class="node">
<title>background/audio&#45;segment.js</title>
<path fill="none" stroke="#cfffac" d="M1098.58,-383.51C1098.58,-383.51 920.67,-383.51 920.67,-383.51 916.71,-383.51 912.75,-379.55 912.75,-375.6 912.75,-375.6 912.75,-367.68 912.75,-367.68 912.75,-363.72 916.71,-359.76 920.67,-359.76 920.67,-359.76 1098.58,-359.76 1098.58,-359.76 1102.54,-359.76 1106.5,-363.72 1106.5,-367.68 1106.5,-367.68 1106.5,-375.6 1106.5,-375.6 1106.5,-379.55 1102.54,-383.51 1098.58,-383.51"/>
<text text-anchor="middle" x="1009.62" y="-366.21" font-family="Arial" font-size="14.00" fill="#cfffac">background/audio&#45;segment.js</text>
</g>
<!-- background/audio&#45;cache.js&#45;&gt;background/audio&#45;segment.js -->
<g id="edge1" class="edge">
<title>background/audio&#45;cache.js&#45;&gt;background/audio&#45;segment.js</title>
<path fill="none" stroke="#757575" d="M800.37,-371.64C832.03,-371.64 868.09,-371.64 901.2,-371.64"/>
<polygon fill="#757575" stroke="#757575" points="900.79,-375.14 910.79,-371.64 900.79,-368.14 900.79,-375.14"/>
</g>
<!-- background/audio&#45;generator.js -->
<g id="node3" class="node">
<title>background/audio&#45;generator.js</title>
<path fill="none" stroke="#c6c5fe" d="M471.08,-385.51C471.08,-385.51 288.67,-385.51 288.67,-385.51 284.71,-385.51 280.75,-381.55 280.75,-377.6 280.75,-377.6 280.75,-369.68 280.75,-369.68 280.75,-365.72 284.71,-361.76 288.67,-361.76 288.67,-361.76 471.08,-361.76 471.08,-361.76 475.04,-361.76 479,-365.72 479,-369.68 479,-369.68 479,-377.6 479,-377.6 479,-381.55 475.04,-385.51 471.08,-385.51"/>
<text text-anchor="middle" x="379.88" y="-368.21" font-family="Arial" font-size="14.00" fill="#c6c5fe">background/audio&#45;generator.js</text>
</g>
<!-- background/audio&#45;generator.js&#45;&gt;background/audio&#45;cache.js -->
<g id="edge2" class="edge">
<title>background/audio&#45;generator.js&#45;&gt;background/audio&#45;cache.js</title>
<path fill="none" stroke="#757575" d="M479.25,-373.04C520.84,-372.79 569.2,-372.49 610.89,-372.24"/>
<polygon fill="#757575" stroke="#757575" points="610.69,-375.74 620.67,-372.18 610.65,-368.74 610.69,-375.74"/>
</g>
<!-- background/audio&#45;visualizer.js -->
<g id="node4" class="node">
<title>background/audio&#45;visualizer.js</title>
<path fill="none" stroke="#cfffac" d="M801.71,-425.51C801.71,-425.51 620.79,-425.51 620.79,-425.51 616.83,-425.51 612.88,-421.55 612.88,-417.6 612.88,-417.6 612.88,-409.68 612.88,-409.68 612.88,-405.72 616.83,-401.76 620.79,-401.76 620.79,-401.76 801.71,-401.76 801.71,-401.76 805.67,-401.76 809.62,-405.72 809.62,-409.68 809.62,-409.68 809.62,-417.6 809.62,-417.6 809.62,-421.55 805.67,-425.51 801.71,-425.51"/>
<text text-anchor="middle" x="711.25" y="-408.21" font-family="Arial" font-size="14.00" fill="#cfffac">background/audio&#45;visualizer.js</text>
</g>
<!-- background/audio&#45;generator.js&#45;&gt;background/audio&#45;visualizer.js -->
<g id="edge3" class="edge">
<title>background/audio&#45;generator.js&#45;&gt;background/audio&#45;visualizer.js</title>
<path fill="none" stroke="#757575" d="M479.25,-385.58C517.64,-390.25 561.79,-395.61 601.15,-400.39"/>
<polygon fill="#757575" stroke="#757575" points="600.53,-403.84 610.88,-401.57 601.37,-396.89 600.53,-403.84"/>
</g>
<!-- background/constants.js -->
<g id="node5" class="node">
<title>background/constants.js</title>
<path fill="none" stroke="#cfffac" d="M784.08,-263.51C784.08,-263.51 638.42,-263.51 638.42,-263.51 634.46,-263.51 630.5,-259.55 630.5,-255.6 630.5,-255.6 630.5,-247.68 630.5,-247.68 630.5,-243.72 634.46,-239.76 638.42,-239.76 638.42,-239.76 784.08,-239.76 784.08,-239.76 788.04,-239.76 792,-243.72 792,-247.68 792,-247.68 792,-255.6 792,-255.6 792,-259.55 788.04,-263.51 784.08,-263.51"/>
<text text-anchor="middle" x="711.25" y="-246.21" font-family="Arial" font-size="14.00" fill="#cfffac">background/constants.js</text>
</g>
<!-- background/audio&#45;generator.js&#45;&gt;background/constants.js -->
<g id="edge4" class="edge">
<title>background/audio&#45;generator.js&#45;&gt;background/constants.js</title>
<path fill="none" stroke="#757575" d="M479.15,-371.42C498.61,-367.97 518.25,-362.15 535.25,-352.64 557.3,-340.3 550.94,-323.67 571.25,-308.64 595.94,-290.36 627.33,-276.84 654.03,-267.56"/>
<polygon fill="#757575" stroke="#757575" points="654.97,-270.94 663.34,-264.45 652.75,-264.3 654.97,-270.94"/>
</g>
<!-- background/cost&#45;estimator.js -->
<g id="node6" class="node">
<title>background/cost&#45;estimator.js</title>
<path fill="none" stroke="#c6c5fe" d="M180.58,-75.51C180.58,-75.51 7.92,-75.51 7.92,-75.51 3.96,-75.51 0,-71.55 0,-67.6 0,-67.6 0,-59.68 0,-59.68 0,-55.72 3.96,-51.76 7.92,-51.76 7.92,-51.76 180.58,-51.76 180.58,-51.76 184.54,-51.76 188.5,-55.72 188.5,-59.68 188.5,-59.68 188.5,-67.6 188.5,-67.6 188.5,-71.55 184.54,-75.51 180.58,-75.51"/>
<text text-anchor="middle" x="94.25" y="-58.21" font-family="Arial" font-size="14.00" fill="#c6c5fe">background/cost&#45;estimator.js</text>
</g>
<!-- background/provider&#45;registry.js -->
<g id="node7" class="node">
<title>background/provider&#45;registry.js</title>
<path fill="none" stroke="#c6c5fe" d="M472.21,-137.51C472.21,-137.51 287.54,-137.51 287.54,-137.51 283.58,-137.51 279.62,-133.55 279.62,-129.6 279.62,-129.6 279.62,-121.68 279.62,-121.68 279.62,-117.72 283.58,-113.76 287.54,-113.76 287.54,-113.76 472.21,-113.76 472.21,-113.76 476.17,-113.76 480.12,-117.72 480.12,-121.68 480.12,-121.68 480.12,-129.6 480.12,-129.6 480.12,-133.55 476.17,-137.51 472.21,-137.51"/>
<text text-anchor="middle" x="379.88" y="-120.21" font-family="Arial" font-size="14.00" fill="#c6c5fe">background/provider&#45;registry.js</text>
</g>
<!-- background/cost&#45;estimator.js&#45;&gt;background/provider&#45;registry.js -->
<g id="edge5" class="edge">
<title>background/cost&#45;estimator.js&#45;&gt;background/provider&#45;registry.js</title>
<path fill="none" stroke="#757575" d="M151.62,-75.96C197.64,-86.02 262.78,-100.26 311.53,-110.92"/>
<polygon fill="#757575" stroke="#757575" points="310.61,-114.3 321.13,-113.01 312.11,-107.46 310.61,-114.3"/>
</g>
<!-- background/providers/pricing&#45;model.js -->
<g id="node8" class="node">
<title>background/providers/pricing&#45;model.js</title>
<path fill="none" stroke="#cfffac" d="M1124.08,-95.51C1124.08,-95.51 895.17,-95.51 895.17,-95.51 891.21,-95.51 887.25,-91.55 887.25,-87.6 887.25,-87.6 887.25,-79.68 887.25,-79.68 887.25,-75.72 891.21,-71.76 895.17,-71.76 895.17,-71.76 1124.08,-71.76 1124.08,-71.76 1128.04,-71.76 1132,-75.72 1132,-79.68 1132,-79.68 1132,-87.6 1132,-87.6 1132,-91.55 1128.04,-95.51 1124.08,-95.51"/>
<text text-anchor="middle" x="1009.62" y="-78.21" font-family="Arial" font-size="14.00" fill="#cfffac">background/providers/pricing&#45;model.js</text>
</g>
<!-- background/cost&#45;estimator.js&#45;&gt;background/providers/pricing&#45;model.js -->
<g id="edge6" class="edge">
<title>background/cost&#45;estimator.js&#45;&gt;background/providers/pricing&#45;model.js</title>
<path fill="none" stroke="#757575" d="M150.42,-51.32C276.08,-25.25 592.75,29.18 851.25,-20.64 896.23,-29.31 944.69,-50.72 975.77,-66.18"/>
<polygon fill="#757575" stroke="#757575" points="974.15,-69.28 984.66,-70.68 977.32,-63.04 974.15,-69.28"/>
</g>
<!-- background/provider&#45;registry.js&#45;&gt;background/constants.js -->
<g id="edge19" class="edge">
<title>background/provider&#45;registry.js&#45;&gt;background/constants.js</title>
<path fill="none" stroke="#757575" d="M480.26,-124.08C499.97,-127.74 519.43,-134.6 535.25,-146.64 567.57,-171.24 539.11,-205.8 571.25,-230.64 584.95,-241.23 601.74,-247.56 618.84,-251.18"/>
<polygon fill="#757575" stroke="#757575" points="618.15,-254.61 628.61,-252.92 619.38,-247.72 618.15,-254.61"/>
</g>
<!-- background/providers/browser&#45;provider.js -->
<g id="node15" class="node">
<title>background/providers/browser&#45;provider.js</title>
<path fill="none" stroke="#c6c5fe" d="M835.08,-179.51C835.08,-179.51 587.42,-179.51 587.42,-179.51 583.46,-179.51 579.5,-175.55 579.5,-171.6 579.5,-171.6 579.5,-163.68 579.5,-163.68 579.5,-159.72 583.46,-155.76 587.42,-155.76 587.42,-155.76 835.08,-155.76 835.08,-155.76 839.04,-155.76 843,-159.72 843,-163.68 843,-163.68 843,-171.6 843,-171.6 843,-175.55 839.04,-179.51 835.08,-179.51"/>
<text text-anchor="middle" x="711.25" y="-162.21" font-family="Arial" font-size="14.00" fill="#c6c5fe">background/providers/browser&#45;provider.js</text>
</g>
<!-- background/provider&#45;registry.js&#45;&gt;background/providers/browser&#45;provider.js -->
<g id="edge20" class="edge">
<title>background/provider&#45;registry.js&#45;&gt;background/providers/browser&#45;provider.js</title>
<path fill="none" stroke="#757575" d="M477.92,-138.01C516.86,-142.98 561.91,-148.72 601.92,-153.82"/>
<polygon fill="#757575" stroke="#757575" points="601.47,-157.29 611.83,-155.09 602.35,-150.35 601.47,-157.29"/>
</g>
<!-- background/providers/cartesia&#45;provider.js -->
<g id="node16" class="node">
<title>background/providers/cartesia&#45;provider.js</title>
<path fill="none" stroke="#c6c5fe" d="M834.71,-137.51C834.71,-137.51 587.79,-137.51 587.79,-137.51 583.83,-137.51 579.88,-133.55 579.88,-129.6 579.88,-129.6 579.88,-121.68 579.88,-121.68 579.88,-117.72 583.83,-113.76 587.79,-113.76 587.79,-113.76 834.71,-113.76 834.71,-113.76 838.67,-113.76 842.62,-117.72 842.62,-121.68 842.62,-121.68 842.62,-129.6 842.62,-129.6 842.62,-133.55 838.67,-137.51 834.71,-137.51"/>
<text text-anchor="middle" x="711.25" y="-120.21" font-family="Arial" font-size="14.00" fill="#c6c5fe">background/providers/cartesia&#45;provider.js</text>
</g>
<!-- background/provider&#45;registry.js&#45;&gt;background/providers/cartesia&#45;provider.js -->
<g id="edge21" class="edge">
<title>background/provider&#45;registry.js&#45;&gt;background/providers/cartesia&#45;provider.js</title>
<path fill="none" stroke="#757575" d="M480.59,-125.64C508.21,-125.64 538.73,-125.64 568.26,-125.64"/>
<polygon fill="#757575" stroke="#757575" points="568.01,-129.14 578.01,-125.64 568.01,-122.14 568.01,-129.14"/>
</g>
<!-- background/providers/elevenlabs&#45;provider.js -->
<g id="node17" class="node">
<title>background/providers/elevenlabs&#45;provider.js</title>
<path fill="none" stroke="#c6c5fe" d="M843.33,-95.51C843.33,-95.51 579.17,-95.51 579.17,-95.51 575.21,-95.51 571.25,-91.55 571.25,-87.6 571.25,-87.6 571.25,-79.68 571.25,-79.68 571.25,-75.72 575.21,-71.76 579.17,-71.76 579.17,-71.76 843.33,-71.76 843.33,-71.76 847.29,-71.76 851.25,-75.72 851.25,-79.68 851.25,-79.68 851.25,-87.6 851.25,-87.6 851.25,-91.55 847.29,-95.51 843.33,-95.51"/>
<text text-anchor="middle" x="711.25" y="-78.21" font-family="Arial" font-size="14.00" fill="#c6c5fe">background/providers/elevenlabs&#45;provider.js</text>
</g>
<!-- background/provider&#45;registry.js&#45;&gt;background/providers/elevenlabs&#45;provider.js -->
<g id="edge22" class="edge">
<title>background/provider&#45;registry.js&#45;&gt;background/providers/elevenlabs&#45;provider.js</title>
<path fill="none" stroke="#757575" d="M477.92,-113.26C516.86,-108.3 561.91,-102.55 601.92,-97.45"/>
<polygon fill="#757575" stroke="#757575" points="602.35,-100.92 611.83,-96.19 601.47,-93.98 602.35,-100.92"/>
</g>
<!-- background/providers/groq&#45;provider.js -->
<g id="node18" class="node">
<title>background/providers/groq&#45;provider.js</title>
<path fill="none" stroke="#c6c5fe" d="M824.58,-53.51C824.58,-53.51 597.92,-53.51 597.92,-53.51 593.96,-53.51 590,-49.55 590,-45.6 590,-45.6 590,-37.68 590,-37.68 590,-33.72 593.96,-29.76 597.92,-29.76 597.92,-29.76 824.58,-29.76 824.58,-29.76 828.54,-29.76 832.5,-33.72 832.5,-37.68 832.5,-37.68 832.5,-45.6 832.5,-45.6 832.5,-49.55 828.54,-53.51 824.58,-53.51"/>
<text text-anchor="middle" x="711.25" y="-36.21" font-family="Arial" font-size="14.00" fill="#c6c5fe">background/providers/groq&#45;provider.js</text>
</g>
<!-- background/provider&#45;registry.js&#45;&gt;background/providers/groq&#45;provider.js -->
<g id="edge23" class="edge">
<title>background/provider&#45;registry.js&#45;&gt;background/providers/groq&#45;provider.js</title>
<path fill="none" stroke="#757575" d="M412.4,-113.37C449.77,-99.26 514.2,-76.28 571.25,-62.64 581.47,-60.19 592.18,-57.98 602.93,-55.98"/>
<polygon fill="#757575" stroke="#757575" points="603.41,-59.45 612.64,-54.25 602.18,-52.56 603.41,-59.45"/>
</g>
<!-- background/providers/openai&#45;provider.js -->
<g id="node19" class="node">
<title>background/providers/openai&#45;provider.js</title>
<path fill="none" stroke="#c6c5fe" d="M831.33,-221.51C831.33,-221.51 591.17,-221.51 591.17,-221.51 587.21,-221.51 583.25,-217.55 583.25,-213.6 583.25,-213.6 583.25,-205.68 583.25,-205.68 583.25,-201.72 587.21,-197.76 591.17,-197.76 591.17,-197.76 831.33,-197.76 831.33,-197.76 835.29,-197.76 839.25,-201.72 839.25,-205.68 839.25,-205.68 839.25,-213.6 839.25,-213.6 839.25,-217.55 835.29,-221.51 831.33,-221.51"/>
<text text-anchor="middle" x="711.25" y="-204.21" font-family="Arial" font-size="14.00" fill="#c6c5fe">background/providers/openai&#45;provider.js</text>
</g>
<!-- background/provider&#45;registry.js&#45;&gt;background/providers/openai&#45;provider.js -->
<g id="edge24" class="edge">
<title>background/provider&#45;registry.js&#45;&gt;background/providers/openai&#45;provider.js</title>
<path fill="none" stroke="#757575" d="M480.6,-128.44C499.55,-131.91 518.62,-137.58 535.25,-146.64 556.84,-158.4 549.75,-176.72 571.25,-188.64 574.1,-190.22 577.03,-191.69 580.03,-193.06"/>
<polygon fill="#757575" stroke="#757575" points="578.47,-196.2 589.05,-196.77 581.13,-189.73 578.47,-196.2"/>
</g>
<!-- background/index.js -->
<g id="node9" class="node">
<title>background/index.js</title>
<path fill="none" stroke="#c6c5fe" d="M154.33,-281.51C154.33,-281.51 34.17,-281.51 34.17,-281.51 30.21,-281.51 26.25,-277.55 26.25,-273.6 26.25,-273.6 26.25,-265.68 26.25,-265.68 26.25,-261.72 30.21,-257.76 34.17,-257.76 34.17,-257.76 154.33,-257.76 154.33,-257.76 158.29,-257.76 162.25,-261.72 162.25,-265.68 162.25,-265.68 162.25,-273.6 162.25,-273.6 162.25,-277.55 158.29,-281.51 154.33,-281.51"/>
<text text-anchor="middle" x="94.25" y="-264.21" font-family="Arial" font-size="14.00" fill="#c6c5fe">background/index.js</text>
</g>
<!-- background/index.js&#45;&gt;background/audio&#45;generator.js -->
<g id="edge7" class="edge">
<title>background/index.js&#45;&gt;background/audio&#45;generator.js</title>
<path fill="none" stroke="#757575" d="M162.38,-277.67C171.71,-280.75 180.74,-284.94 188.5,-290.64 214.19,-309.49 198.02,-334.91 224.5,-352.64 237.92,-361.62 253.48,-367.56 269.45,-371.38"/>
<polygon fill="#757575" stroke="#757575" points="268.57,-374.77 279.07,-373.39 270,-367.92 268.57,-374.77"/>
</g>
<!-- background/index.js&#45;&gt;background/audio&#45;visualizer.js -->
<g id="edge8" class="edge">
<title>background/index.js&#45;&gt;background/audio&#45;visualizer.js</title>
<path fill="none" stroke="#757575" d="M162.48,-276.05C172.01,-279.32 181.08,-284 188.5,-290.64 224.96,-323.24 185.22,-365.49 224.5,-394.64 354.57,-491.14 562.59,-453.64 658.6,-428.81"/>
<polygon fill="#757575" stroke="#757575" points="659.24,-432.26 668.01,-426.32 657.44,-425.5 659.24,-432.26"/>
</g>
<!-- background/index.js&#45;&gt;background/constants.js -->
<g id="edge9" class="edge">
<title>background/index.js&#45;&gt;background/constants.js</title>
<path fill="none" stroke="#757575" d="M162.53,-267.67C273.3,-264.43 494.2,-257.96 618.97,-254.31"/>
<polygon fill="#757575" stroke="#757575" points="618.96,-257.81 628.85,-254.02 618.76,-250.81 618.96,-257.81"/>
</g>
<!-- background/index.js&#45;&gt;background/provider&#45;registry.js -->
<g id="edge12" class="edge">
<title>background/index.js&#45;&gt;background/provider&#45;registry.js</title>
<path fill="none" stroke="#757575" d="M103.63,-257.65C122.13,-232.25 169.22,-173.2 224.5,-146.64 238.13,-140.09 253.18,-135.39 268.37,-132.06"/>
<polygon fill="#757575" stroke="#757575" points="268.82,-135.54 277.95,-130.17 267.46,-128.68 268.82,-135.54"/>
</g>
<!-- background/message&#45;router.js -->
<g id="node10" class="node">
<title>background/message&#45;router.js</title>
<path fill="none" stroke="#c6c5fe" d="M471.08,-221.51C471.08,-221.51 288.67,-221.51 288.67,-221.51 284.71,-221.51 280.75,-217.55 280.75,-213.6 280.75,-213.6 280.75,-205.68 280.75,-205.68 280.75,-201.72 284.71,-197.76 288.67,-197.76 288.67,-197.76 471.08,-197.76 471.08,-197.76 475.04,-197.76 479,-201.72 479,-205.68 479,-205.68 479,-213.6 479,-213.6 479,-217.55 475.04,-221.51 471.08,-221.51"/>
<text text-anchor="middle" x="379.88" y="-204.21" font-family="Arial" font-size="14.00" fill="#c6c5fe">background/message&#45;router.js</text>
</g>
<!-- background/index.js&#45;&gt;background/message&#45;router.js -->
<g id="edge10" class="edge">
<title>background/index.js&#45;&gt;background/message&#45;router.js</title>
<path fill="none" stroke="#757575" d="M138.1,-257.32C163.15,-250.39 195.47,-241.89 224.5,-235.64 244.34,-231.37 265.74,-227.37 286.1,-223.86"/>
<polygon fill="#757575" stroke="#757575" points="286.53,-227.34 295.8,-222.22 285.36,-220.44 286.53,-227.34"/>
</g>
<!-- background/playback&#45;controller.js -->
<g id="node11" class="node">
<title>background/playback&#45;controller.js</title>
<path fill="none" stroke="#c6c5fe" d="M480.08,-343.51C480.08,-343.51 279.67,-343.51 279.67,-343.51 275.71,-343.51 271.75,-339.55 271.75,-335.6 271.75,-335.6 271.75,-327.68 271.75,-327.68 271.75,-323.72 275.71,-319.76 279.67,-319.76 279.67,-319.76 480.08,-319.76 480.08,-319.76 484.04,-319.76 488,-323.72 488,-327.68 488,-327.68 488,-335.6 488,-335.6 488,-339.55 484.04,-343.51 480.08,-343.51"/>
<text text-anchor="middle" x="379.88" y="-326.21" font-family="Arial" font-size="14.00" fill="#c6c5fe">background/playback&#45;controller.js</text>
</g>
<!-- background/index.js&#45;&gt;background/playback&#45;controller.js -->
<g id="edge11" class="edge">
<title>background/index.js&#45;&gt;background/playback&#45;controller.js</title>
<path fill="none" stroke="#757575" d="M161.17,-282C170.47,-284.46 179.82,-287.33 188.5,-290.64 205.6,-297.16 207.13,-304.86 224.5,-310.64 235.9,-314.43 247.99,-317.54 260.18,-320.08"/>
<polygon fill="#757575" stroke="#757575" points="259.43,-323.5 269.91,-321.98 260.76,-316.63 259.43,-323.5"/>
</g>
<!-- background/providers/groq&#45;timestamp&#45;provider.js -->
<g id="node12" class="node">
<title>background/providers/groq&#45;timestamp&#45;provider.js</title>
<path fill="none" stroke="#c6c5fe" d="M527.33,-179.51C527.33,-179.51 232.42,-179.51 232.42,-179.51 228.46,-179.51 224.5,-175.55 224.5,-171.6 224.5,-171.6 224.5,-163.68 224.5,-163.68 224.5,-159.72 228.46,-155.76 232.42,-155.76 232.42,-155.76 527.33,-155.76 527.33,-155.76 531.29,-155.76 535.25,-159.72 535.25,-163.68 535.25,-163.68 535.25,-171.6 535.25,-171.6 535.25,-175.55 531.29,-179.51 527.33,-179.51"/>
<text text-anchor="middle" x="379.88" y="-162.21" font-family="Arial" font-size="14.00" fill="#c6c5fe">background/providers/groq&#45;timestamp&#45;provider.js</text>
</g>
<!-- background/index.js&#45;&gt;background/providers/groq&#45;timestamp&#45;provider.js -->
<g id="edge13" class="edge">
<title>background/index.js&#45;&gt;background/providers/groq&#45;timestamp&#45;provider.js</title>
<path fill="none" stroke="#757575" d="M110.05,-257.36C132.97,-239.07 179.18,-205.05 224.5,-188.64 230.53,-186.45 236.76,-184.49 243.12,-182.74"/>
<polygon fill="#757575" stroke="#757575" points="243.62,-186.22 252.43,-180.34 241.88,-179.44 243.62,-186.22"/>
</g>
<!-- background/ui&#45;coordinator.js -->
<g id="node13" class="node">
<title>background/ui&#45;coordinator.js</title>
<path fill="none" stroke="#c6c5fe" d="M464.71,-301.51C464.71,-301.51 295.04,-301.51 295.04,-301.51 291.08,-301.51 287.12,-297.55 287.12,-293.6 287.12,-293.6 287.12,-285.68 287.12,-285.68 287.12,-281.72 291.08,-277.76 295.04,-277.76 295.04,-277.76 464.71,-277.76 464.71,-277.76 468.67,-277.76 472.62,-281.72 472.62,-285.68 472.62,-285.68 472.62,-293.6 472.62,-293.6 472.62,-297.55 468.67,-301.51 464.71,-301.51"/>
<text text-anchor="middle" x="379.88" y="-284.21" font-family="Arial" font-size="14.00" fill="#c6c5fe">background/ui&#45;coordinator.js</text>
</g>
<!-- background/index.js&#45;&gt;background/ui&#45;coordinator.js -->
<g id="edge14" class="edge">
<title>background/index.js&#45;&gt;background/ui&#45;coordinator.js</title>
<path fill="none" stroke="#757575" d="M162.47,-274.38C196.24,-276.76 237.89,-279.7 275.62,-282.36"/>
<polygon fill="#757575" stroke="#757575" points="274.93,-285.82 285.15,-283.03 275.42,-278.83 274.93,-285.82"/>
</g>
<!-- background/message&#45;router.js&#45;&gt;background/constants.js -->
<g id="edge15" class="edge">
<title>background/message&#45;router.js&#45;&gt;background/constants.js</title>
<path fill="none" stroke="#757575" d="M477.92,-222.01C522.52,-227.7 575.13,-234.41 619,-240"/>
<polygon fill="#757575" stroke="#757575" points="618.38,-243.45 628.75,-241.24 619.27,-236.51 618.38,-243.45"/>
</g>
<!-- background/playback&#45;controller.js&#45;&gt;background/audio&#45;cache.js -->
<g id="edge16" class="edge">
<title>background/playback&#45;controller.js&#45;&gt;background/audio&#45;cache.js</title>
<path fill="none" stroke="#757575" d="M482.39,-343.96C523.25,-348.93 570.22,-354.63 610.87,-359.57"/>
<polygon fill="#757575" stroke="#757575" points="610.3,-363.02 620.65,-360.76 611.15,-356.08 610.3,-363.02"/>
</g>
<!-- background/playback&#45;controller.js&#45;&gt;background/constants.js -->
<g id="edge17" class="edge">
<title>background/playback&#45;controller.js&#45;&gt;background/constants.js</title>
<path fill="none" stroke="#757575" d="M488.49,-319.67C504.26,-317.15 520.24,-314.15 535.25,-310.64 582.07,-299.66 634.1,-281.3 669.16,-267.97"/>
<polygon fill="#757575" stroke="#757575" points="669.98,-271.4 678.06,-264.55 667.47,-264.87 669.98,-271.4"/>
</g>
<!-- background/playback&#45;sync.js -->
<g id="node14" class="node">
<title>background/playback&#45;sync.js</title>
<path fill="none" stroke="#cfffac" d="M797.96,-341.51C797.96,-341.51 624.54,-341.51 624.54,-341.51 620.58,-341.51 616.62,-337.55 616.62,-333.6 616.62,-333.6 616.62,-325.68 616.62,-325.68 616.62,-321.72 620.58,-317.76 624.54,-317.76 624.54,-317.76 797.96,-317.76 797.96,-317.76 801.92,-317.76 805.88,-321.72 805.88,-325.68 805.88,-325.68 805.88,-333.6 805.88,-333.6 805.88,-337.55 801.92,-341.51 797.96,-341.51"/>
<text text-anchor="middle" x="711.25" y="-324.21" font-family="Arial" font-size="14.00" fill="#cfffac">background/playback&#45;sync.js</text>
</g>
<!-- background/playback&#45;controller.js&#45;&gt;background/playback&#45;sync.js -->
<g id="edge18" class="edge">
<title>background/playback&#45;controller.js&#45;&gt;background/playback&#45;sync.js</title>
<path fill="none" stroke="#757575" d="M488.27,-330.98C525.7,-330.76 567.64,-330.5 604.9,-330.28"/>
<polygon fill="#757575" stroke="#757575" points="604.81,-333.78 614.79,-330.22 604.77,-326.78 604.81,-333.78"/>
</g>
<!-- background/providers/groq&#45;timestamp&#45;provider.js&#45;&gt;background/constants.js -->
<g id="edge33" class="edge">
<title>background/providers/groq&#45;timestamp&#45;provider.js&#45;&gt;background/constants.js</title>
<path fill="none" stroke="#757575" d="M515.84,-179.89C522.56,-182.38 529.07,-185.27 535.25,-188.64 556.84,-200.4 549.75,-218.72 571.25,-230.64 585.87,-238.74 602.62,-244.01 619.31,-247.38"/>
<polygon fill="#757575" stroke="#757575" points="618.3,-250.76 628.76,-249.07 619.53,-243.87 618.3,-250.76"/>
</g>
<!-- background/ui&#45;coordinator.js&#45;&gt;background/constants.js -->
<g id="edge36" class="edge">
<title>background/ui&#45;coordinator.js&#45;&gt;background/constants.js</title>
<path fill="none" stroke="#757575" d="M473.06,-279C518.59,-273.75 573.35,-267.43 618.78,-262.19"/>
<polygon fill="#757575" stroke="#757575" points="619.09,-265.68 628.62,-261.05 618.28,-258.72 619.09,-265.68"/>
</g>
<!-- background/providers/browser&#45;provider.js&#45;&gt;background/providers/pricing&#45;model.js -->
<g id="edge26" class="edge">
<title>background/providers/browser&#45;provider.js&#45;&gt;background/providers/pricing&#45;model.js</title>
<path fill="none" stroke="#757575" d="M832.05,-155.35C838.71,-152.89 845.17,-150.01 851.25,-146.64 872.75,-134.72 865.87,-116.78 887.25,-104.64 889.95,-103.1 892.73,-101.68 895.57,-100.35"/>
<polygon fill="#757575" stroke="#757575" points="896.84,-103.62 904.73,-96.55 894.16,-97.15 896.84,-103.62"/>
</g>
<!-- background/providers/base&#45;provider.js -->
<g id="node20" class="node">
<title>background/providers/base&#45;provider.js</title>
<path fill="none" stroke="#cfffac" d="M1124.08,-137.51C1124.08,-137.51 895.17,-137.51 895.17,-137.51 891.21,-137.51 887.25,-133.55 887.25,-129.6 887.25,-129.6 887.25,-121.68 887.25,-121.68 887.25,-117.72 891.21,-113.76 895.17,-113.76 895.17,-113.76 1124.08,-113.76 1124.08,-113.76 1128.04,-113.76 1132,-117.72 1132,-121.68 1132,-121.68 1132,-129.6 1132,-129.6 1132,-133.55 1128.04,-137.51 1124.08,-137.51"/>
<text text-anchor="middle" x="1009.62" y="-120.21" font-family="Arial" font-size="14.00" fill="#cfffac">background/providers/base&#45;provider.js</text>
</g>
<!-- background/providers/browser&#45;provider.js&#45;&gt;background/providers/base&#45;provider.js -->
<g id="edge25" class="edge">
<title>background/providers/browser&#45;provider.js&#45;&gt;background/providers/base&#45;provider.js</title>
<path fill="none" stroke="#757575" d="M799.57,-155.26C834.39,-150.33 874.63,-144.63 910.45,-139.55"/>
<polygon fill="#757575" stroke="#757575" points="910.51,-143.08 919.92,-138.21 909.53,-136.15 910.51,-143.08"/>
</g>
<!-- background/providers/cartesia&#45;provider.js&#45;&gt;background/providers/pricing&#45;model.js -->
<g id="edge28" class="edge">
<title>background/providers/cartesia&#45;provider.js&#45;&gt;background/providers/pricing&#45;model.js</title>
<path fill="none" stroke="#757575" d="M799.57,-113.26C834.39,-108.33 874.63,-102.63 910.45,-97.55"/>
<polygon fill="#757575" stroke="#757575" points="910.51,-101.08 919.92,-96.21 909.53,-94.15 910.51,-101.08"/>
</g>
<!-- background/providers/cartesia&#45;provider.js&#45;&gt;background/providers/base&#45;provider.js -->
<g id="edge27" class="edge">
<title>background/providers/cartesia&#45;provider.js&#45;&gt;background/providers/base&#45;provider.js</title>
<path fill="none" stroke="#757575" d="M843.11,-125.64C853.93,-125.64 864.87,-125.64 875.7,-125.64"/>
<polygon fill="#757575" stroke="#757575" points="875.43,-129.14 885.43,-125.64 875.43,-122.14 875.43,-129.14"/>
</g>
<!-- background/providers/elevenlabs&#45;provider.js&#45;&gt;background/providers/pricing&#45;model.js -->
<g id="edge30" class="edge">
<title>background/providers/elevenlabs&#45;provider.js&#45;&gt;background/providers/pricing&#45;model.js</title>
<path fill="none" stroke="#757575" d="M851.33,-83.64C859.4,-83.64 867.51,-83.64 875.56,-83.64"/>
<polygon fill="#757575" stroke="#757575" points="875.38,-87.14 885.38,-83.64 875.38,-80.14 875.38,-87.14"/>
</g>
<!-- background/providers/elevenlabs&#45;provider.js&#45;&gt;background/providers/base&#45;provider.js -->
<g id="edge29" class="edge">
<title>background/providers/elevenlabs&#45;provider.js&#45;&gt;background/providers/base&#45;provider.js</title>
<path fill="none" stroke="#757575" d="M799.57,-96.01C834.39,-100.95 874.63,-106.65 910.45,-111.72"/>
<polygon fill="#757575" stroke="#757575" points="909.53,-115.13 919.92,-113.07 910.51,-108.2 909.53,-115.13"/>
</g>
<!-- background/providers/groq&#45;provider.js&#45;&gt;background/providers/pricing&#45;model.js -->
<g id="edge32" class="edge">
<title>background/providers/groq&#45;provider.js&#45;&gt;background/providers/pricing&#45;model.js</title>
<path fill="none" stroke="#757575" d="M799.57,-54.01C834.39,-58.95 874.63,-64.65 910.45,-69.72"/>
<polygon fill="#757575" stroke="#757575" points="909.53,-73.13 919.92,-71.07 910.51,-66.2 909.53,-73.13"/>
</g>
<!-- background/providers/groq&#45;provider.js&#45;&gt;background/providers/base&#45;provider.js -->
<g id="edge31" class="edge">
<title>background/providers/groq&#45;provider.js&#45;&gt;background/providers/base&#45;provider.js</title>
<path fill="none" stroke="#757575" d="M832.05,-53.93C838.71,-56.38 845.17,-59.27 851.25,-62.64 872.75,-74.55 865.87,-92.49 887.25,-104.64 889.95,-106.17 892.73,-107.59 895.57,-108.92"/>
<polygon fill="#757575" stroke="#757575" points="894.16,-112.12 904.73,-112.72 896.84,-105.66 894.16,-112.12"/>
</g>
<!-- background/providers/openai&#45;provider.js&#45;&gt;background/providers/pricing&#45;model.js -->
<g id="edge35" class="edge">
<title>background/providers/openai&#45;provider.js&#45;&gt;background/providers/pricing&#45;model.js</title>
<path fill="none" stroke="#757575" d="M837.7,-197.3C842.46,-194.79 847,-191.92 851.25,-188.64 883.39,-163.8 855.38,-129.82 887.25,-104.64 888.56,-103.6 889.9,-102.61 891.28,-101.66"/>
<polygon fill="#757575" stroke="#757575" points="892.67,-104.9 899.45,-96.76 889.07,-98.9 892.67,-104.9"/>
</g>
<!-- background/providers/openai&#45;provider.js&#45;&gt;background/providers/base&#45;provider.js -->
<g id="edge34" class="edge">
<title>background/providers/openai&#45;provider.js&#45;&gt;background/providers/base&#45;provider.js</title>
<path fill="none" stroke="#757575" d="M812.67,-197.29C825.75,-194.86 838.89,-192 851.25,-188.64 894.18,-176.97 941.29,-157.11 972.67,-142.81"/>
<polygon fill="#757575" stroke="#757575" points="974.09,-146 981.71,-138.63 971.16,-139.65 974.09,-146"/>
</g>
<!-- content/content&#45;extractor.js -->
<g id="node21" class="node">
<title>content/content&#45;extractor.js</title>
<path fill="none" stroke="#cfffac" d="M175.33,-323.51C175.33,-323.51 13.17,-323.51 13.17,-323.51 9.21,-323.51 5.25,-319.55 5.25,-315.6 5.25,-315.6 5.25,-307.68 5.25,-307.68 5.25,-303.72 9.21,-299.76 13.17,-299.76 13.17,-299.76 175.33,-299.76 175.33,-299.76 179.29,-299.76 183.25,-303.72 183.25,-307.68 183.25,-307.68 183.25,-315.6 183.25,-315.6 183.25,-319.55 179.29,-323.51 175.33,-323.51"/>
<text text-anchor="middle" x="94.25" y="-306.21" font-family="Arial" font-size="14.00" fill="#cfffac">content/content&#45;extractor.js</text>
</g>
<!-- content/content&#45;scorer.js -->
<g id="node22" class="node">
<title>content/content&#45;scorer.js</title>
<path fill="none" stroke="#cfffac" d="M167.83,-365.51C167.83,-365.51 20.67,-365.51 20.67,-365.51 16.71,-365.51 12.75,-361.55 12.75,-357.6 12.75,-357.6 12.75,-349.68 12.75,-349.68 12.75,-345.72 16.71,-341.76 20.67,-341.76 20.67,-341.76 167.83,-341.76 167.83,-341.76 171.79,-341.76 175.75,-345.72 175.75,-349.68 175.75,-349.68 175.75,-357.6 175.75,-357.6 175.75,-361.55 171.79,-365.51 167.83,-365.51"/>
<text text-anchor="middle" x="94.25" y="-348.21" font-family="Arial" font-size="14.00" fill="#cfffac">content/content&#45;scorer.js</text>
</g>
<!-- content/floating&#45;controller.js -->
<g id="node23" class="node">
<title>content/floating&#45;controller.js</title>
<path fill="none" stroke="#cfffac" d="M176.46,-407.51C176.46,-407.51 12.04,-407.51 12.04,-407.51 8.08,-407.51 4.12,-403.55 4.12,-399.6 4.12,-399.6 4.12,-391.68 4.12,-391.68 4.12,-387.72 8.08,-383.76 12.04,-383.76 12.04,-383.76 176.46,-383.76 176.46,-383.76 180.42,-383.76 184.38,-387.72 184.38,-391.68 184.38,-391.68 184.38,-399.6 184.38,-399.6 184.38,-403.55 180.42,-407.51 176.46,-407.51"/>
<text text-anchor="middle" x="94.25" y="-390.21" font-family="Arial" font-size="14.00" fill="#cfffac">content/floating&#45;controller.js</text>
</g>
<!-- content/highlight&#45;manager.js -->
<g id="node24" class="node">
<title>content/highlight&#45;manager.js</title>
<path fill="none" stroke="#cfffac" d="M179.08,-449.51C179.08,-449.51 9.42,-449.51 9.42,-449.51 5.46,-449.51 1.5,-445.55 1.5,-441.6 1.5,-441.6 1.5,-433.68 1.5,-433.68 1.5,-429.72 5.46,-425.76 9.42,-425.76 9.42,-425.76 179.08,-425.76 179.08,-425.76 183.04,-425.76 187,-429.72 187,-433.68 187,-433.68 187,-441.6 187,-441.6 187,-445.55 183.04,-449.51 179.08,-449.51"/>
<text text-anchor="middle" x="94.25" y="-432.21" font-family="Arial" font-size="14.00" fill="#cfffac">content/highlight&#45;manager.js</text>
</g>
<!-- content/index.js -->
<g id="node25" class="node">
<title>content/index.js</title>
<path fill="none" stroke="#cfffac" d="M141.21,-491.51C141.21,-491.51 47.29,-491.51 47.29,-491.51 43.33,-491.51 39.38,-487.55 39.38,-483.6 39.38,-483.6 39.38,-475.68 39.38,-475.68 39.38,-471.72 43.33,-467.76 47.29,-467.76 47.29,-467.76 141.21,-467.76 141.21,-467.76 145.17,-467.76 149.12,-471.72 149.12,-475.68 149.12,-475.68 149.12,-483.6 149.12,-483.6 149.12,-487.55 145.17,-491.51 141.21,-491.51"/>
<text text-anchor="middle" x="94.25" y="-474.21" font-family="Arial" font-size="14.00" fill="#cfffac">content/index.js</text>
</g>
<!-- content/text&#45;segment.js -->
<g id="node26" class="node">
<title>content/text&#45;segment.js</title>
<path fill="none" stroke="#cfffac" d="M164.46,-533.51C164.46,-533.51 24.04,-533.51 24.04,-533.51 20.08,-533.51 16.12,-529.55 16.12,-525.6 16.12,-525.6 16.12,-517.68 16.12,-517.68 16.12,-513.72 20.08,-509.76 24.04,-509.76 24.04,-509.76 164.46,-509.76 164.46,-509.76 168.42,-509.76 172.38,-513.72 172.38,-517.68 172.38,-517.68 172.38,-525.6 172.38,-525.6 172.38,-529.55 168.42,-533.51 164.46,-533.51"/>
<text text-anchor="middle" x="94.25" y="-516.21" font-family="Arial" font-size="14.00" fill="#cfffac">content/text&#45;segment.js</text>
</g>
</g>
</svg>
